<mxfile host="65bd71144e">
    <diagram id="C5RBs43oDa-KdzZeNtuy" name="Page-1">
        <mxGraphModel dx="748" dy="381" grid="1" gridSize="10" guides="1" tooltips="1" connect="1" arrows="1" fold="1" page="1" pageScale="1" pageWidth="827" pageHeight="1169" math="0" shadow="0">
            <root>
                <mxCell id="WIyWlLk6GJQsqaUBKTNV-0"/>
                <mxCell id="WIyWlLk6GJQsqaUBKTNV-1" parent="WIyWlLk6GJQsqaUBKTNV-0"/>
                <mxCell id="1N9wxfGGeAQH_XEOSG9--65" value="publish&lt;br&gt;(CommandSelected)" style="edgeStyle=orthogonalEdgeStyle;rounded=0;jumpStyle=gap;orthogonalLoop=1;jettySize=auto;html=1;exitX=0.75;exitY=1;exitDx=0;exitDy=0;entryX=1;entryY=0.5;entryDx=0;entryDy=0;" parent="WIyWlLk6GJQsqaUBKTNV-1" source="1N9wxfGGeAQH_XEOSG9--24" target="1N9wxfGGeAQH_XEOSG9--62" edge="1">
                    <mxGeometry x="0.3351" relative="1" as="geometry">
                        <Array as="points">
                            <mxPoint x="528" y="360"/>
                            <mxPoint x="528" y="683"/>
                        </Array>
                        <mxPoint y="-1" as="offset"/>
                    </mxGeometry>
                </mxCell>
                <mxCell id="1N9wxfGGeAQH_XEOSG9--32" value="reads" style="edgeStyle=orthogonalEdgeStyle;rounded=0;orthogonalLoop=1;jettySize=auto;html=1;entryX=0.5;entryY=0;entryDx=0;entryDy=0;jumpStyle=none;dashed=1;" parent="WIyWlLk6GJQsqaUBKTNV-1" source="1N9wxfGGeAQH_XEOSG9--0" target="1N9wxfGGeAQH_XEOSG9--16" edge="1">
                    <mxGeometry relative="1" as="geometry"/>
                </mxCell>
                <mxCell id="1N9wxfGGeAQH_XEOSG9--53" style="edgeStyle=orthogonalEdgeStyle;rounded=0;jumpStyle=none;orthogonalLoop=1;jettySize=auto;html=1;entryX=0.5;entryY=1;entryDx=0;entryDy=0;dashed=1;" parent="WIyWlLk6GJQsqaUBKTNV-1" source="1N9wxfGGeAQH_XEOSG9--0" target="1N9wxfGGeAQH_XEOSG9--52" edge="1">
                    <mxGeometry relative="1" as="geometry">
                        <Array as="points">
                            <mxPoint x="100" y="110"/>
                            <mxPoint x="365" y="110"/>
                        </Array>
                    </mxGeometry>
                </mxCell>
                <mxCell id="1N9wxfGGeAQH_XEOSG9--0" value="InputView" style="swimlane;fontStyle=1;align=center;verticalAlign=top;childLayout=stackLayout;horizontal=1;startSize=26;horizontalStack=0;resizeParent=1;resizeParentMax=0;resizeLast=0;collapsible=1;marginBottom=0;" parent="WIyWlLk6GJQsqaUBKTNV-1" vertex="1">
                    <mxGeometry x="20" y="150" width="160" height="86" as="geometry">
                        <mxRectangle x="120" y="150" width="100" height="30" as="alternateBounds"/>
                    </mxGeometry>
                </mxCell>
                <mxCell id="1N9wxfGGeAQH_XEOSG9--1" value="+ field: type" style="text;strokeColor=none;fillColor=none;align=left;verticalAlign=top;spacingLeft=4;spacingRight=4;overflow=hidden;rotatable=0;points=[[0,0.5],[1,0.5]];portConstraint=eastwest;" parent="1N9wxfGGeAQH_XEOSG9--0" vertex="1">
                    <mxGeometry y="26" width="160" height="26" as="geometry"/>
                </mxCell>
                <mxCell id="1N9wxfGGeAQH_XEOSG9--2" value="" style="line;strokeWidth=1;fillColor=none;align=left;verticalAlign=middle;spacingTop=-1;spacingLeft=3;spacingRight=3;rotatable=0;labelPosition=right;points=[];portConstraint=eastwest;strokeColor=inherit;" parent="1N9wxfGGeAQH_XEOSG9--0" vertex="1">
                    <mxGeometry y="52" width="160" height="8" as="geometry"/>
                </mxCell>
                <mxCell id="1N9wxfGGeAQH_XEOSG9--3" value="+ method(type): type" style="text;strokeColor=none;fillColor=none;align=left;verticalAlign=top;spacingLeft=4;spacingRight=4;overflow=hidden;rotatable=0;points=[[0,0.5],[1,0.5]];portConstraint=eastwest;" parent="1N9wxfGGeAQH_XEOSG9--0" vertex="1">
                    <mxGeometry y="60" width="160" height="26" as="geometry"/>
                </mxCell>
                <mxCell id="1N9wxfGGeAQH_XEOSG9--34" value="reads" style="edgeStyle=orthogonalEdgeStyle;rounded=0;jumpStyle=none;orthogonalLoop=1;jettySize=auto;html=1;entryX=0.5;entryY=0;entryDx=0;entryDy=0;dashed=1;" parent="WIyWlLk6GJQsqaUBKTNV-1" source="1N9wxfGGeAQH_XEOSG9--4" target="1N9wxfGGeAQH_XEOSG9--20" edge="1">
                    <mxGeometry relative="1" as="geometry"/>
                </mxCell>
                <mxCell id="1N9wxfGGeAQH_XEOSG9--55" style="edgeStyle=orthogonalEdgeStyle;rounded=0;jumpStyle=none;orthogonalLoop=1;jettySize=auto;html=1;dashed=1;" parent="WIyWlLk6GJQsqaUBKTNV-1" source="1N9wxfGGeAQH_XEOSG9--4" target="1N9wxfGGeAQH_XEOSG9--52" edge="1">
                    <mxGeometry relative="1" as="geometry">
                        <Array as="points">
                            <mxPoint x="280" y="110"/>
                            <mxPoint x="365" y="110"/>
                        </Array>
                    </mxGeometry>
                </mxCell>
                <mxCell id="1N9wxfGGeAQH_XEOSG9--4" value="OutputView" style="swimlane;fontStyle=1;align=center;verticalAlign=top;childLayout=stackLayout;horizontal=1;startSize=26;horizontalStack=0;resizeParent=1;resizeParentMax=0;resizeLast=0;collapsible=1;marginBottom=0;" parent="WIyWlLk6GJQsqaUBKTNV-1" vertex="1">
                    <mxGeometry x="200" y="150" width="160" height="86" as="geometry">
                        <mxRectangle x="120" y="150" width="100" height="30" as="alternateBounds"/>
                    </mxGeometry>
                </mxCell>
                <mxCell id="1N9wxfGGeAQH_XEOSG9--5" value="+ field: type" style="text;strokeColor=none;fillColor=none;align=left;verticalAlign=top;spacingLeft=4;spacingRight=4;overflow=hidden;rotatable=0;points=[[0,0.5],[1,0.5]];portConstraint=eastwest;" parent="1N9wxfGGeAQH_XEOSG9--4" vertex="1">
                    <mxGeometry y="26" width="160" height="26" as="geometry"/>
                </mxCell>
                <mxCell id="1N9wxfGGeAQH_XEOSG9--6" value="" style="line;strokeWidth=1;fillColor=none;align=left;verticalAlign=middle;spacingTop=-1;spacingLeft=3;spacingRight=3;rotatable=0;labelPosition=right;points=[];portConstraint=eastwest;strokeColor=inherit;" parent="1N9wxfGGeAQH_XEOSG9--4" vertex="1">
                    <mxGeometry y="52" width="160" height="8" as="geometry"/>
                </mxCell>
                <mxCell id="1N9wxfGGeAQH_XEOSG9--7" value="+ method(type): type" style="text;strokeColor=none;fillColor=none;align=left;verticalAlign=top;spacingLeft=4;spacingRight=4;overflow=hidden;rotatable=0;points=[[0,0.5],[1,0.5]];portConstraint=eastwest;" parent="1N9wxfGGeAQH_XEOSG9--4" vertex="1">
                    <mxGeometry y="60" width="160" height="26" as="geometry"/>
                </mxCell>
                <mxCell id="1N9wxfGGeAQH_XEOSG9--35" value="reads" style="edgeStyle=orthogonalEdgeStyle;rounded=0;jumpStyle=none;orthogonalLoop=1;jettySize=auto;html=1;entryX=0.5;entryY=0;entryDx=0;entryDy=0;dashed=1;" parent="WIyWlLk6GJQsqaUBKTNV-1" source="1N9wxfGGeAQH_XEOSG9--8" target="1N9wxfGGeAQH_XEOSG9--24" edge="1">
                    <mxGeometry relative="1" as="geometry"/>
                </mxCell>
                <mxCell id="1N9wxfGGeAQH_XEOSG9--56" style="edgeStyle=orthogonalEdgeStyle;rounded=0;jumpStyle=none;orthogonalLoop=1;jettySize=auto;html=1;dashed=1;" parent="WIyWlLk6GJQsqaUBKTNV-1" source="1N9wxfGGeAQH_XEOSG9--8" target="1N9wxfGGeAQH_XEOSG9--52" edge="1">
                    <mxGeometry relative="1" as="geometry">
                        <Array as="points">
                            <mxPoint x="460" y="110"/>
                            <mxPoint x="365" y="110"/>
                        </Array>
                    </mxGeometry>
                </mxCell>
                <mxCell id="1N9wxfGGeAQH_XEOSG9--8" value="LibraryView" style="swimlane;fontStyle=1;align=center;verticalAlign=top;childLayout=stackLayout;horizontal=1;startSize=26;horizontalStack=0;resizeParent=1;resizeParentMax=0;resizeLast=0;collapsible=1;marginBottom=0;" parent="WIyWlLk6GJQsqaUBKTNV-1" vertex="1">
                    <mxGeometry x="380" y="150" width="160" height="86" as="geometry">
                        <mxRectangle x="120" y="150" width="100" height="30" as="alternateBounds"/>
                    </mxGeometry>
                </mxCell>
                <mxCell id="1N9wxfGGeAQH_XEOSG9--9" value="+ field: type" style="text;strokeColor=none;fillColor=none;align=left;verticalAlign=top;spacingLeft=4;spacingRight=4;overflow=hidden;rotatable=0;points=[[0,0.5],[1,0.5]];portConstraint=eastwest;" parent="1N9wxfGGeAQH_XEOSG9--8" vertex="1">
                    <mxGeometry y="26" width="160" height="26" as="geometry"/>
                </mxCell>
                <mxCell id="1N9wxfGGeAQH_XEOSG9--10" value="" style="line;strokeWidth=1;fillColor=none;align=left;verticalAlign=middle;spacingTop=-1;spacingLeft=3;spacingRight=3;rotatable=0;labelPosition=right;points=[];portConstraint=eastwest;strokeColor=inherit;" parent="1N9wxfGGeAQH_XEOSG9--8" vertex="1">
                    <mxGeometry y="52" width="160" height="8" as="geometry"/>
                </mxCell>
                <mxCell id="1N9wxfGGeAQH_XEOSG9--11" value="+ method(type): type" style="text;strokeColor=none;fillColor=none;align=left;verticalAlign=top;spacingLeft=4;spacingRight=4;overflow=hidden;rotatable=0;points=[[0,0.5],[1,0.5]];portConstraint=eastwest;" parent="1N9wxfGGeAQH_XEOSG9--8" vertex="1">
                    <mxGeometry y="60" width="160" height="26" as="geometry"/>
                </mxCell>
                <mxCell id="1N9wxfGGeAQH_XEOSG9--36" value="reads" style="edgeStyle=orthogonalEdgeStyle;rounded=0;jumpStyle=none;orthogonalLoop=1;jettySize=auto;html=1;entryX=0.5;entryY=0;entryDx=0;entryDy=0;dashed=1;" parent="WIyWlLk6GJQsqaUBKTNV-1" source="1N9wxfGGeAQH_XEOSG9--12" target="1N9wxfGGeAQH_XEOSG9--28" edge="1">
                    <mxGeometry relative="1" as="geometry"/>
                </mxCell>
                <mxCell id="1N9wxfGGeAQH_XEOSG9--54" style="edgeStyle=orthogonalEdgeStyle;rounded=0;jumpStyle=none;orthogonalLoop=1;jettySize=auto;html=1;dashed=1;" parent="WIyWlLk6GJQsqaUBKTNV-1" source="1N9wxfGGeAQH_XEOSG9--12" target="1N9wxfGGeAQH_XEOSG9--52" edge="1">
                    <mxGeometry relative="1" as="geometry">
                        <Array as="points">
                            <mxPoint x="640" y="110"/>
                            <mxPoint x="365" y="110"/>
                        </Array>
                    </mxGeometry>
                </mxCell>
                <mxCell id="1N9wxfGGeAQH_XEOSG9--12" value="StatusView" style="swimlane;fontStyle=1;align=center;verticalAlign=top;childLayout=stackLayout;horizontal=1;startSize=26;horizontalStack=0;resizeParent=1;resizeParentMax=0;resizeLast=0;collapsible=1;marginBottom=0;" parent="WIyWlLk6GJQsqaUBKTNV-1" vertex="1">
                    <mxGeometry x="560" y="150" width="160" height="86" as="geometry">
                        <mxRectangle x="120" y="150" width="100" height="30" as="alternateBounds"/>
                    </mxGeometry>
                </mxCell>
                <mxCell id="1N9wxfGGeAQH_XEOSG9--13" value="+ field: type" style="text;strokeColor=none;fillColor=none;align=left;verticalAlign=top;spacingLeft=4;spacingRight=4;overflow=hidden;rotatable=0;points=[[0,0.5],[1,0.5]];portConstraint=eastwest;" parent="1N9wxfGGeAQH_XEOSG9--12" vertex="1">
                    <mxGeometry y="26" width="160" height="26" as="geometry"/>
                </mxCell>
                <mxCell id="1N9wxfGGeAQH_XEOSG9--14" value="" style="line;strokeWidth=1;fillColor=none;align=left;verticalAlign=middle;spacingTop=-1;spacingLeft=3;spacingRight=3;rotatable=0;labelPosition=right;points=[];portConstraint=eastwest;strokeColor=inherit;" parent="1N9wxfGGeAQH_XEOSG9--12" vertex="1">
                    <mxGeometry y="52" width="160" height="8" as="geometry"/>
                </mxCell>
                <mxCell id="1N9wxfGGeAQH_XEOSG9--15" value="+ method(type): type" style="text;strokeColor=none;fillColor=none;align=left;verticalAlign=top;spacingLeft=4;spacingRight=4;overflow=hidden;rotatable=0;points=[[0,0.5],[1,0.5]];portConstraint=eastwest;" parent="1N9wxfGGeAQH_XEOSG9--12" vertex="1">
                    <mxGeometry y="60" width="160" height="26" as="geometry"/>
                </mxCell>
                <mxCell id="1N9wxfGGeAQH_XEOSG9--58" style="edgeStyle=orthogonalEdgeStyle;rounded=0;jumpStyle=none;orthogonalLoop=1;jettySize=auto;html=1;dashed=1;" parent="WIyWlLk6GJQsqaUBKTNV-1" source="1N9wxfGGeAQH_XEOSG9--16" target="1N9wxfGGeAQH_XEOSG9--57" edge="1">
                    <mxGeometry relative="1" as="geometry">
                        <Array as="points">
                            <mxPoint x="100" y="440"/>
                            <mxPoint x="365" y="440"/>
                        </Array>
                    </mxGeometry>
                </mxCell>
                <mxCell id="1N9wxfGGeAQH_XEOSG9--63" value="publish&lt;br&gt;(CommandEntered)" style="edgeStyle=orthogonalEdgeStyle;rounded=0;jumpStyle=none;orthogonalLoop=1;jettySize=auto;html=1;entryX=0;entryY=0.5;entryDx=0;entryDy=0;" parent="WIyWlLk6GJQsqaUBKTNV-1" source="1N9wxfGGeAQH_XEOSG9--16" target="1N9wxfGGeAQH_XEOSG9--62" edge="1">
                    <mxGeometry relative="1" as="geometry">
                        <mxPoint x="58" y="350" as="sourcePoint"/>
                        <Array as="points">
                            <mxPoint x="50" y="683"/>
                        </Array>
                    </mxGeometry>
                </mxCell>
                <mxCell id="1N9wxfGGeAQH_XEOSG9--16" value="InputModel" style="swimlane;fontStyle=1;align=center;verticalAlign=top;childLayout=stackLayout;horizontal=1;startSize=26;horizontalStack=0;resizeParent=1;resizeParentMax=0;resizeLast=0;collapsible=1;marginBottom=0;" parent="WIyWlLk6GJQsqaUBKTNV-1" vertex="1">
                    <mxGeometry x="20" y="320" width="160" height="40" as="geometry">
                        <mxRectangle x="120" y="150" width="100" height="30" as="alternateBounds"/>
                    </mxGeometry>
                </mxCell>
                <mxCell id="1N9wxfGGeAQH_XEOSG9--59" style="edgeStyle=orthogonalEdgeStyle;rounded=0;jumpStyle=none;orthogonalLoop=1;jettySize=auto;html=1;dashed=1;" parent="WIyWlLk6GJQsqaUBKTNV-1" source="1N9wxfGGeAQH_XEOSG9--20" target="1N9wxfGGeAQH_XEOSG9--57" edge="1">
                    <mxGeometry relative="1" as="geometry">
                        <Array as="points">
                            <mxPoint x="280" y="440"/>
                            <mxPoint x="365" y="440"/>
                        </Array>
                    </mxGeometry>
                </mxCell>
                <mxCell id="1N9wxfGGeAQH_XEOSG9--20" value="OutputModel" style="swimlane;fontStyle=1;align=center;verticalAlign=top;childLayout=stackLayout;horizontal=1;startSize=26;horizontalStack=0;resizeParent=1;resizeParentMax=0;resizeLast=0;collapsible=1;marginBottom=0;" parent="WIyWlLk6GJQsqaUBKTNV-1" vertex="1">
                    <mxGeometry x="200" y="320" width="160" height="40" as="geometry">
                        <mxRectangle x="120" y="150" width="100" height="30" as="alternateBounds"/>
                    </mxGeometry>
                </mxCell>
                <mxCell id="1N9wxfGGeAQH_XEOSG9--60" style="edgeStyle=orthogonalEdgeStyle;rounded=0;jumpStyle=none;orthogonalLoop=1;jettySize=auto;html=1;dashed=1;" parent="WIyWlLk6GJQsqaUBKTNV-1" source="1N9wxfGGeAQH_XEOSG9--24" target="1N9wxfGGeAQH_XEOSG9--57" edge="1">
                    <mxGeometry relative="1" as="geometry">
                        <Array as="points">
                            <mxPoint x="460" y="440"/>
                            <mxPoint x="365" y="440"/>
                        </Array>
                    </mxGeometry>
                </mxCell>
                <mxCell id="1N9wxfGGeAQH_XEOSG9--24" value="LibraryModel" style="swimlane;fontStyle=1;align=center;verticalAlign=top;childLayout=stackLayout;horizontal=1;startSize=26;horizontalStack=0;resizeParent=1;resizeParentMax=0;resizeLast=0;collapsible=1;marginBottom=0;" parent="WIyWlLk6GJQsqaUBKTNV-1" vertex="1">
                    <mxGeometry x="380" y="320" width="160" height="40" as="geometry">
                        <mxRectangle x="120" y="150" width="100" height="30" as="alternateBounds"/>
                    </mxGeometry>
                </mxCell>
                <mxCell id="1N9wxfGGeAQH_XEOSG9--28" value="StatusModel" style="swimlane;fontStyle=1;align=center;verticalAlign=top;childLayout=stackLayout;horizontal=1;startSize=26;horizontalStack=0;resizeParent=1;resizeParentMax=0;resizeLast=0;collapsible=1;marginBottom=0;" parent="WIyWlLk6GJQsqaUBKTNV-1" vertex="1">
                    <mxGeometry x="560" y="320" width="160" height="40" as="geometry">
                        <mxRectangle x="120" y="150" width="100" height="30" as="alternateBounds"/>
                    </mxGeometry>
                </mxCell>
                <mxCell id="1N9wxfGGeAQH_XEOSG9--64" value="pushes events" style="edgeStyle=orthogonalEdgeStyle;rounded=0;jumpStyle=none;orthogonalLoop=1;jettySize=auto;html=1;entryX=0.5;entryY=1;entryDx=0;entryDy=0;" parent="WIyWlLk6GJQsqaUBKTNV-1" source="1N9wxfGGeAQH_XEOSG9--37" target="1N9wxfGGeAQH_XEOSG9--57" edge="1">
                    <mxGeometry relative="1" as="geometry"/>
                </mxCell>
                <mxCell id="1N9wxfGGeAQH_XEOSG9--37" value="EventHub" style="swimlane;fontStyle=1;align=center;verticalAlign=top;childLayout=stackLayout;horizontal=1;startSize=26;horizontalStack=0;resizeParent=1;resizeParentMax=0;resizeLast=0;collapsible=1;marginBottom=0;" parent="WIyWlLk6GJQsqaUBKTNV-1" vertex="1">
                    <mxGeometry x="222.5" y="610" width="285" height="112" as="geometry"/>
                </mxCell>
                <mxCell id="1N9wxfGGeAQH_XEOSG9--38" value="+ field: type" style="text;strokeColor=none;fillColor=none;align=left;verticalAlign=top;spacingLeft=4;spacingRight=4;overflow=hidden;rotatable=0;points=[[0,0.5],[1,0.5]];portConstraint=eastwest;" parent="1N9wxfGGeAQH_XEOSG9--37" vertex="1">
                    <mxGeometry y="26" width="285" height="26" as="geometry"/>
                </mxCell>
                <mxCell id="1N9wxfGGeAQH_XEOSG9--39" value="" style="line;strokeWidth=1;fillColor=none;align=left;verticalAlign=middle;spacingTop=-1;spacingLeft=3;spacingRight=3;rotatable=0;labelPosition=right;points=[];portConstraint=eastwest;strokeColor=inherit;" parent="1N9wxfGGeAQH_XEOSG9--37" vertex="1">
                    <mxGeometry y="52" width="285" height="8" as="geometry"/>
                </mxCell>
                <mxCell id="1N9wxfGGeAQH_XEOSG9--62" value="+ publish(&amp;self, event: ...)" style="text;strokeColor=none;fillColor=none;align=left;verticalAlign=top;spacingLeft=4;spacingRight=4;overflow=hidden;rotatable=0;points=[[0,0.5],[1,0.5]];portConstraint=eastwest;" parent="1N9wxfGGeAQH_XEOSG9--37" vertex="1">
                    <mxGeometry y="60" width="285" height="26" as="geometry"/>
                </mxCell>
                <mxCell id="1N9wxfGGeAQH_XEOSG9--40" value="+ subscribe(&amp;mut self, subscriber: impl Subscriber)" style="text;strokeColor=none;fillColor=none;align=left;verticalAlign=top;spacingLeft=4;spacingRight=4;overflow=hidden;rotatable=0;points=[[0,0.5],[1,0.5]];portConstraint=eastwest;" parent="1N9wxfGGeAQH_XEOSG9--37" vertex="1">
                    <mxGeometry y="86" width="285" height="26" as="geometry"/>
                </mxCell>
                <mxCell id="1N9wxfGGeAQH_XEOSG9--52" value="&lt;p style=&quot;margin:0px;margin-top:4px;text-align:center;&quot;&gt;&lt;i&gt;&amp;lt;&amp;lt;Interface&amp;gt;&amp;gt;&lt;/i&gt;&lt;br&gt;&lt;b&gt;Drawable&lt;/b&gt;&lt;/p&gt;&lt;hr size=&quot;1&quot;&gt;&lt;p style=&quot;margin:0px;margin-left:4px;&quot;&gt;+ draw(&amp;amp;self, frame: ...)&lt;span style=&quot;color: rgba(0, 0, 0, 0); font-family: monospace; font-size: 0px;&quot;&gt;mxGraphModel%3E%3Croot%3E%3CmxCell%20id%3D%220%22%2F%3E%3CmxCell%20id%3D%221%22%20parent%3D%220%22%2F%3E%3CmxCell%20id%3D%222%22%20value%3D%22%C2%ABtrait%C2%BB%26lt%3Bbr%26gt%3B%26lt%3Bb%26gt%3BDrawable%26lt%3B%2Fb%26gt%3B%22%20style%3D%22html%3D1%3B%22%20vertex%3D%221%22%20parent%3D%221%22%3E%3CmxGeometry%20x%3D%22310%22%20y%3D%2230%22%20width%3D%22110%22%20height%3D%2250%22%20as%3D%22geometry%22%2F%3E%3C%2FmxCell%3E%3C%2Froot%3E%3C%2FmxGraphModel%3E&lt;/span&gt;&lt;br&gt;&lt;/p&gt;" style="verticalAlign=top;align=left;overflow=fill;fontSize=12;fontFamily=Helvetica;html=1;" parent="WIyWlLk6GJQsqaUBKTNV-1" vertex="1">
                    <mxGeometry x="270" y="20" width="190" height="64" as="geometry"/>
                </mxCell>
                <mxCell id="1N9wxfGGeAQH_XEOSG9--57" value="&lt;p style=&quot;margin:0px;margin-top:4px;text-align:center;&quot;&gt;&lt;i&gt;&amp;lt;&amp;lt;Interface&amp;gt;&amp;gt;&lt;/i&gt;&lt;br&gt;&lt;b&gt;Subscriber&lt;/b&gt;&lt;/p&gt;&lt;hr size=&quot;1&quot;&gt;&lt;p style=&quot;margin:0px;margin-left:4px;&quot;&gt;+ callback(&amp;amp;mut self, event: ...) -&amp;gt; Result&amp;lt;_,_&amp;gt;&lt;span style=&quot;color: rgba(0, 0, 0, 0); font-family: monospace; font-size: 0px;&quot;&gt;id%3D%220%22%2F%3E%3CmxCell%20id%3D%221%22%20parent%3D%220%22%2F%3E%3CmxCell%20id%3D%222%22%20value%3D%22%C2%ABtrait%C2%BB%26lt%3Bbr%26gt%3B%26lt%3Bb%26gt%3BDrawable%26lt%3B%2Fb%26gt%3B%22%20style%3D%22html%3D1%3B%22%20vertex%3D%221%22%20parent%3D%221%22%3E%3CmxGeometry%20x%3D%22310%22%20y%3D%2230%22%20width%3D%22110%22%20height%3D%2250%22%20as%3D%22geometry%22%2F%3E%3C%2FmxCell%3E%3C%2Froot%3E%3C%2FmxGraphModel%3E -- -&lt;/span&gt;&lt;br&gt;&lt;/p&gt;" style="verticalAlign=top;align=left;overflow=fill;fontSize=12;fontFamily=Helvetica;html=1;" parent="WIyWlLk6GJQsqaUBKTNV-1" vertex="1">
                    <mxGeometry x="235" y="480" width="260" height="64" as="geometry"/>
                </mxCell>
                <mxCell id="1N9wxfGGeAQH_XEOSG9--61" style="edgeStyle=orthogonalEdgeStyle;rounded=0;jumpStyle=arc;orthogonalLoop=1;jettySize=auto;html=1;dashed=1;" parent="WIyWlLk6GJQsqaUBKTNV-1" source="1N9wxfGGeAQH_XEOSG9--28" target="1N9wxfGGeAQH_XEOSG9--57" edge="1">
                    <mxGeometry relative="1" as="geometry">
                        <Array as="points">
                            <mxPoint x="640" y="440"/>
                            <mxPoint x="365" y="440"/>
                        </Array>
                    </mxGeometry>
                </mxCell>
                <mxCell id="1N9wxfGGeAQH_XEOSG9--72" style="edgeStyle=elbowEdgeStyle;rounded=0;jumpStyle=arc;orthogonalLoop=1;jettySize=auto;html=1;dashed=1;" parent="WIyWlLk6GJQsqaUBKTNV-1" source="1N9wxfGGeAQH_XEOSG9--67" target="1N9wxfGGeAQH_XEOSG9--57" edge="1">
                    <mxGeometry relative="1" as="geometry"/>
                </mxCell>
                <mxCell id="1N9wxfGGeAQH_XEOSG9--67" value="CommandRunner" style="swimlane;fontStyle=1;align=center;verticalAlign=top;childLayout=stackLayout;horizontal=1;startSize=26;horizontalStack=0;resizeParent=1;resizeParentMax=0;resizeLast=0;collapsible=1;marginBottom=0;" parent="WIyWlLk6GJQsqaUBKTNV-1" vertex="1">
                    <mxGeometry x="750" y="486" width="160" height="52" as="geometry"/>
                </mxCell>
                <mxCell id="1N9wxfGGeAQH_XEOSG9--71" value="publish&lt;br&gt;(CommandExecuted)" style="edgeStyle=elbowEdgeStyle;rounded=0;jumpStyle=arc;orthogonalLoop=1;jettySize=auto;html=1;entryX=1;entryY=0.5;entryDx=0;entryDy=0;" parent="WIyWlLk6GJQsqaUBKTNV-1" source="1N9wxfGGeAQH_XEOSG9--67" target="1N9wxfGGeAQH_XEOSG9--62" edge="1">
                    <mxGeometry x="0.0483" y="2" relative="1" as="geometry">
                        <mxPoint x="750" y="542" as="sourcePoint"/>
                        <Array as="points">
                            <mxPoint x="830" y="560"/>
                        </Array>
                        <mxPoint as="offset"/>
                    </mxGeometry>
                </mxCell>
                <mxCell id="1N9wxfGGeAQH_XEOSG9--77" value="publish&lt;br&gt;(KeyPress)" style="edgeStyle=elbowEdgeStyle;rounded=0;jumpStyle=arc;orthogonalLoop=1;jettySize=auto;html=1;entryX=1;entryY=0.5;entryDx=0;entryDy=0;" parent="WIyWlLk6GJQsqaUBKTNV-1" source="1N9wxfGGeAQH_XEOSG9--73" target="1N9wxfGGeAQH_XEOSG9--40" edge="1">
                    <mxGeometry relative="1" as="geometry">
                        <Array as="points">
                            <mxPoint x="1100" y="480"/>
                        </Array>
                    </mxGeometry>
                </mxCell>
                <mxCell id="1N9wxfGGeAQH_XEOSG9--83" style="edgeStyle=elbowEdgeStyle;rounded=0;jumpStyle=arc;orthogonalLoop=1;jettySize=auto;html=1;entryX=1;entryY=0.5;entryDx=0;entryDy=0;" parent="WIyWlLk6GJQsqaUBKTNV-1" source="1N9wxfGGeAQH_XEOSG9--73" target="1N9wxfGGeAQH_XEOSG9--52" edge="1">
                    <mxGeometry relative="1" as="geometry">
                        <Array as="points">
                            <mxPoint x="1100" y="170"/>
                        </Array>
                    </mxGeometry>
                </mxCell>
                <mxCell id="1N9wxfGGeAQH_XEOSG9--84" value="draw" style="edgeLabel;html=1;align=center;verticalAlign=middle;resizable=0;points=[];" parent="1N9wxfGGeAQH_XEOSG9--83" vertex="1" connectable="0">
                    <mxGeometry x="-0.0949" y="3" relative="1" as="geometry">
                        <mxPoint as="offset"/>
                    </mxGeometry>
                </mxCell>
                <mxCell id="1N9wxfGGeAQH_XEOSG9--73" value="App" style="swimlane;fontStyle=1;align=center;verticalAlign=top;childLayout=stackLayout;horizontal=1;startSize=26;horizontalStack=0;resizeParent=1;resizeParentMax=0;resizeLast=0;collapsible=1;marginBottom=0;" parent="WIyWlLk6GJQsqaUBKTNV-1" vertex="1">
                    <mxGeometry x="1030" y="234" width="160" height="86" as="geometry"/>
                </mxCell>
                <mxCell id="1N9wxfGGeAQH_XEOSG9--74" value="+ terminal: Terminal" style="text;strokeColor=none;fillColor=none;align=left;verticalAlign=top;spacingLeft=4;spacingRight=4;overflow=hidden;rotatable=0;points=[[0,0.5],[1,0.5]];portConstraint=eastwest;" parent="1N9wxfGGeAQH_XEOSG9--73" vertex="1">
                    <mxGeometry y="26" width="160" height="26" as="geometry"/>
                </mxCell>
                <mxCell id="1N9wxfGGeAQH_XEOSG9--75" value="" style="line;strokeWidth=1;fillColor=none;align=left;verticalAlign=middle;spacingTop=-1;spacingLeft=3;spacingRight=3;rotatable=0;labelPosition=right;points=[];portConstraint=eastwest;strokeColor=inherit;" parent="1N9wxfGGeAQH_XEOSG9--73" vertex="1">
                    <mxGeometry y="52" width="160" height="8" as="geometry"/>
                </mxCell>
                <mxCell id="1N9wxfGGeAQH_XEOSG9--76" value="+ run(&amp;mut self)" style="text;strokeColor=none;fillColor=none;align=left;verticalAlign=top;spacingLeft=4;spacingRight=4;overflow=hidden;rotatable=0;points=[[0,0.5],[1,0.5]];portConstraint=eastwest;" parent="1N9wxfGGeAQH_XEOSG9--73" vertex="1">
                    <mxGeometry y="60" width="160" height="26" as="geometry"/>
                </mxCell>
            </root>
        </mxGraphModel>
    </diagram>
</mxfile>